<svg width="28" height="28" viewBox="0 0 28 28" fill="none" xmlns="http://www.w3.org/2000/svg">
  <path d="M9.8 7.2L11.3 5.1C11.8 4.4 12.6 4 13.5 4H16.6C17.5 4 18.3 4.4 18.8 5.1L20.3 7.2H22.3C24.1 7.2 25.5 8.6 25.5 10.4V21.1C25.5 22.9 24.1 24.3 22.3 24.3H5.7C3.9 24.3 2.5 22.9 2.5 21.1V10.4C2.5 8.6 3.9 7.2 5.7 7.2H9.8Z" fill="#0052FF"/>
  <path d="M14 20.9C17.1 20.9 19.6 18.4 19.6 15.3C19.6 12.2 17.1 9.7 14 9.7C10.9 9.7 8.4 12.2 8.4 15.3C8.4 18.4 10.9 20.9 14 20.9Z" fill="white" fill-opacity="0.94"/>
  <path d="M14 18.7C15.9 18.7 17.4 17.2 17.4 15.3C17.4 13.4 15.9 11.9 14 11.9C12.1 11.9 10.6 13.4 10.6 15.3C10.6 17.2 12.1 18.7 14 18.7Z" fill="#0052FF"/>
</svg>
